<svg id="Layer_1" data-name="Layer 1" xmlns="http://www.w3.org/2000/svg" xmlns:xlink="http://www.w3.org/1999/xlink" viewBox="0 0 1904.84 667.47"><defs><style>.cls-1,.cls-11,.cls-16,.cls-17,.cls-5,.cls-8,.cls-9{fill:none;}.cls-1,.cls-3{stroke:#a8acac;}.cls-1,.cls-10,.cls-11,.cls-13,.cls-14,.cls-16,.cls-17,.cls-3,.cls-5,.cls-7,.cls-8,.cls-9{stroke-miterlimit:10;}.cls-1{stroke-width:2.89px;}.cls-2,.cls-3{fill:#a8acac;}.cls-11,.cls-16,.cls-17,.cls-3,.cls-5,.cls-7,.cls-9{stroke-width:3px;}.cls-4{fill:#14234b;}.cls-5,.cls-7{stroke:#14c8b9;}.cls-6{fill:#14c8b9;}.cls-7{fill:#d4ffed;}.cls-10,.cls-11,.cls-13,.cls-14,.cls-8{stroke:#0053d6;}.cls-8{stroke-width:2px;}.cls-16,.cls-9{stroke:#123693;}.cls-10,.cls-13,.cls-14{stroke-width:4px;}.cls-10{fill:url(#linear-gradient);}.cls-12{fill:#f9526b;}.cls-13{fill:url(#linear-gradient-2);}.cls-14{fill:#d9e2ff;}.cls-15{fill:#123693;}.cls-16{stroke-dasharray:11 8;}.cls-17{stroke:#f9526b;}</style><linearGradient id="linear-gradient" x1="431.83" y1="192.31" x2="431.83" y2="8.91" gradientUnits="userSpaceOnUse"><stop offset="0" stop-color="#fff"/><stop offset="1" stop-color="#d9e2ff"/></linearGradient><linearGradient id="linear-gradient-2" x1="792.09" y1="192.31" x2="792.09" y2="8.91" xlink:href="#linear-gradient"/></defs><title>blog-long_range_retrieval-fig-REDESIGN</title><line class="cls-1" x1="1081.96" y1="463.1" x2="1771.48" y2="461.38"/><polygon class="cls-2" points="1761.92 473.23 1759.95 471.12 1770.37 461.39 1759.9 451.71 1761.87 449.59 1774.61 461.38 1761.92 473.23"/><line class="cls-2" x1="1081.96" y1="463.1" x2="1774.61" y2="461.38"/><circle class="cls-3" cx="974.65" cy="462.24" r="6.9"/><circle class="cls-3" cx="1014.99" cy="462.24" r="6.9"/><circle class="cls-3" cx="1055.33" cy="462.24" r="6.9"/><line class="cls-1" x1="256.62" y1="463.1" x2="949.27" y2="461.38"/><line class="cls-2" x1="256.62" y1="463.1" x2="949.27" y2="461.38"/><path class="cls-4" d="M171,378.21H158.51l-2.73,7.56h-3.7l10.84-29.4h3.74l10.8,29.4h-3.74ZM170,375.35l-5.21-14.57-5.25,14.57Z" transform="translate(-8.61 -4.27)"/><path class="cls-4" d="M200.81,367.58l-3.87.17a7.44,7.44,0,0,1,1.18,4.08c0,4.11-3,7.39-8.28,7.39a10.82,10.82,0,0,1-3.19-.46l-2.14,2c.92.63,2.1,1,6.8,1.39,5.63.42,7.82,2.69,7.82,6.22s-2.86,7.18-9.24,7.18c-5.68,0-9.62-2.23-9.62-6.72a6.19,6.19,0,0,1,3-5.13,8.25,8.25,0,0,1-2.77-1.8v-1l3.57-3.57a7,7,0,0,1-2.48-5.5c0-4.08,3-7.4,8.27-7.4a9.86,9.86,0,0,1,3.28.51h7.69ZM190.52,385c-1.6-.09-2.9-.26-4-.42-2.26,1.21-2.81,2.77-2.81,3.9,0,2.82,2.6,4.16,6.18,4.16s5.75-1.64,5.75-4.16C195.64,386.65,194.46,385.23,190.52,385Zm4.2-13.15c0-2.86-1.89-4.46-4.88-4.46s-4.91,1.6-4.91,4.46,1.93,4.49,4.91,4.49S194.72,374.73,194.72,371.83Z" transform="translate(-8.61 -4.27)"/><path class="cls-4" d="M223.15,376.15H206.52c.25,4.79,3.44,7.14,6.8,7.14a5.78,5.78,0,0,0,5.8-3.73h3.49a9.15,9.15,0,0,1-9.29,6.72c-6,0-10.25-4.33-10.25-10.93s4.2-10.92,10.34-10.92a9.47,9.47,0,0,1,9.78,9.75C223.19,374.77,223.19,375.35,223.15,376.15Zm-3.44-2.73a6,6,0,0,0-6.39-6,6.44,6.44,0,0,0-6.76,6Z" transform="translate(-8.61 -4.27)"/><path class="cls-4" d="M246.54,373.59v12.18H243V374c0-4.33-1.89-6.51-5.38-6.51s-6.26,2.69-6.26,7.52v10.79h-3.53V364.94H231l.21,3.74a7.83,7.83,0,0,1,7.19-4.25C243.35,364.43,246.54,367.37,246.54,373.59Z" transform="translate(-8.61 -4.27)"/><path class="cls-4" d="M254,379.39V367.92h-3.62v-3H254l.46-5h3.06v5h6.14v3H257.5v11.47c0,2.64.93,3.36,3.62,3.36h2.18v3h-3.19C256.29,385.77,254,384.18,254,379.39Z" transform="translate(-8.61 -4.27)"/><path class="cls-4" d="M266.91,366.83a2.38,2.38,0,0,1,2.44-2.4,2.34,2.34,0,0,1,2.39,2.4,2.37,2.37,0,0,1-2.39,2.43A2.41,2.41,0,0,1,266.91,366.83Zm0,16.76a2.38,2.38,0,0,1,2.44-2.4,2.4,2.4,0,0,1,0,4.79A2.38,2.38,0,0,1,266.91,383.59Z" transform="translate(-8.61 -4.27)"/><path class="cls-4" d="M8.61,610.56c0-9,5.84-15.2,14.49-15.2s14.5,6.21,14.5,15.2-5.76,15.21-14.5,15.21S8.61,619.6,8.61,610.56Zm25.37,0c0-7.56-4.41-12-10.88-12s-10.87,4.49-10.87,12,4.41,12.1,10.87,12.1S34,618.13,34,610.56Z" transform="translate(-8.61 -4.27)"/><path class="cls-4" d="M46,621.78l-.33,3.49h-3.2V595H46v12.86a8.83,8.83,0,0,1,7.65-4c6.17,0,10.29,4.66,10.29,11s-4.12,10.88-10.33,10.88C50.15,625.77,47.42,624.3,46,621.78Zm14.37-6.93c0-4.71-2.94-7.86-7.14-7.86s-7.14,3.15-7.14,7.86,2.94,7.85,7.14,7.85S60.36,619.55,60.36,614.85Z" transform="translate(-8.61 -4.27)"/><path class="cls-4" d="M67.71,618.76h3.61c.46,2.18,2.35,4,5.54,4,3,0,4.33-1.47,4.33-3.19,0-2.48-1.93-3-5.21-3.66s-7.31-2-7.31-5.8c0-3.61,2.9-6.21,7.56-6.21,4.41,0,7.44,2.27,7.9,6.38H80.64c-.25-2.1-1.84-3.4-4.45-3.4s-4,1.18-4,2.9,1.89,2.56,4.92,3.19c3.9.84,7.6,1.81,7.64,6.3,0,3.78-3.06,6.47-8,6.47S68.25,623.08,67.71,618.76Z" transform="translate(-8.61 -4.27)"/><path class="cls-4" d="M109,615.65H92.4c.25,4.79,3.45,7.14,6.81,7.14a5.78,5.78,0,0,0,5.79-3.74h3.49a9.14,9.14,0,0,1-9.28,6.72c-6,0-10.25-4.33-10.25-10.92s4.2-10.92,10.33-10.92a9.48,9.48,0,0,1,9.79,9.74C109.08,614.26,109.08,614.85,109,615.65Zm-3.45-2.73a6,6,0,0,0-6.38-6,6.46,6.46,0,0,0-6.77,6Z" transform="translate(-8.61 -4.27)"/><path class="cls-4" d="M125,603.93v3.69h-1c-3.74,0-6.8,1.64-6.8,7.15v10.5h-3.53V604.43h3.19l.29,4C118.53,605.65,121.17,603.93,125,603.93Z" transform="translate(-8.61 -4.27)"/><path class="cls-4" d="M127.09,604.43h3.7l6.26,17.43,6.3-17.43H147l-7.9,20.84H135Z" transform="translate(-8.61 -4.27)"/><path class="cls-4" d="M167.25,612.45v12.82H164.1l-.21-3.74a7.4,7.4,0,0,1-7.14,4.24c-5.25,0-7.73-3-7.73-6.43,0-4.24,3.48-6.63,9.07-6.63h5.63v-.26c0-3.65-2.1-5.54-5.25-5.54-2.73,0-5,1.39-5.42,4h-3.61c.46-4.49,4.62-7,9-7C164.27,603.93,167.25,607.33,167.25,612.45Zm-3.53,3v0h-5.33c-4.16,0-5.68,1.59-5.68,3.74s1.64,3.61,4.58,3.61C161.37,622.79,163.72,619.18,163.72,615.48Z" transform="translate(-8.61 -4.27)"/><path class="cls-4" d="M174.05,618.88V607.41h-3.61v-3h3.61l.46-5h3.07v5h6.13v3h-6.13v11.47c0,2.65.92,3.36,3.61,3.36h2.19v3h-3.2C176.36,625.27,174.05,623.67,174.05,618.88Z" transform="translate(-8.61 -4.27)"/><path class="cls-4" d="M187.91,597.37a2.44,2.44,0,0,1,4.87,0,2.44,2.44,0,1,1-4.87,0Zm.67,7.06h3.53v20.84h-3.53Z" transform="translate(-8.61 -4.27)"/><path class="cls-4" d="M197.36,614.85c0-6.64,4.58-10.92,10.46-10.92s10.37,4.28,10.37,10.92-4.57,10.92-10.46,10.92S197.36,621.49,197.36,614.85Zm17.22,0c0-5.25-3.23-7.9-6.76-7.9s-6.85,2.65-6.85,7.9,3.24,7.9,6.76,7.9S214.58,620.1,214.58,614.85Z" transform="translate(-8.61 -4.27)"/><path class="cls-4" d="M241.8,613.08v12.19h-3.53V613.46c0-4.32-1.89-6.51-5.38-6.51s-6.26,2.69-6.26,7.52v10.8H223.1V604.43h3.2l.21,3.74a7.79,7.79,0,0,1,7.18-4.24C238.61,603.93,241.8,606.87,241.8,613.08Z" transform="translate(-8.61 -4.27)"/><path class="cls-4" d="M246,618.76h3.62c.46,2.18,2.35,4,5.54,4,3,0,4.33-1.47,4.33-3.19,0-2.48-1.93-3-5.21-3.66s-7.31-2-7.31-5.8c0-3.61,2.9-6.21,7.56-6.21,4.41,0,7.44,2.27,7.9,6.38h-3.49c-.25-2.1-1.85-3.4-4.45-3.4s-3.95,1.18-3.95,2.9,1.89,2.56,4.92,3.19c3.9.84,7.6,1.81,7.64,6.3,0,3.78-3.07,6.47-8,6.47S246.54,623.08,246,618.76Z" transform="translate(-8.61 -4.27)"/><path class="cls-4" d="M266.91,606.32a2.38,2.38,0,0,1,2.44-2.39,2.34,2.34,0,0,1,2.39,2.39,2.38,2.38,0,0,1-2.39,2.44A2.41,2.41,0,0,1,266.91,606.32Zm0,16.76a2.38,2.38,0,0,1,2.44-2.39,2.4,2.4,0,0,1,0,4.79A2.38,2.38,0,0,1,266.91,623.08Z" transform="translate(-8.61 -4.27)"/><line class="cls-5" x1="510.66" y1="302.27" x2="430.33" y2="382.6"/><path class="cls-6" d="M510.9,299a11.28,11.28,0,1,1,0,16A11.27,11.27,0,0,1,510.9,299Z" transform="translate(-8.61 -4.27)"/><circle class="cls-7" cx="431.83" cy="380.9" r="66.36"/><path class="cls-6" d="M453.28,395.08H427.6L422,410.59h-7.58l22.23-60.33h7.67l22.15,60.33H458.8Zm-2.15-5.86-10.69-29.91-10.77,29.91Z" transform="translate(-8.61 -4.27)"/><path class="cls-8" d="M454.15,613.59l-4.82-4.82,4.49-4.49,4.83,4.82a3.18,3.18,0,0,0,4.49-4.49l-4.82-4.83,2.25-2.24a3.18,3.18,0,0,0-4.5-4.5h0l-22.8,22.8a11.14,11.14,0,1,0,4.49,4.5l7.08-7.07,4.82,4.83a3.18,3.18,0,0,0,4.49-4.5h0Z" transform="translate(-8.61 -4.27)"/><path class="cls-8" d="M428,621.63a4,4,0,1,1-4,4A4,4,0,0,1,428,621.63Z" transform="translate(-8.61 -4.27)"/><path class="cls-9" d="M534.12,608.66a8.58,8.58,0,0,1,0,11.57c-13,14.28-50.06,50-93.68,50s-80.63-35.7-93.67-50a8.58,8.58,0,0,1,0-11.57c13-14.27,50-50,93.67-50S521.11,594.4,534.12,608.66Z" transform="translate(-8.61 -4.27)"/><path class="cls-9" d="M440.44,558.67a55.78,55.78,0,1,1-55.78,55.78A55.78,55.78,0,0,1,440.44,558.67Z" transform="translate(-8.61 -4.27)"/><line class="cls-9" x1="431.83" y1="554.4" x2="431.83" y2="481.64"/><rect class="cls-10" x="365.46" y="2" width="132.73" height="191.34" rx="25.43"/><rect class="cls-11" x="365.46" y="41.65" width="132.73" height="79.8"/><path class="cls-4" d="M555.25,291.9H545.12L542.91,298h-3l8.77-23.79h3L560.45,298h-3Zm-.85-2.31-4.21-11.79-4.25,11.79Z" transform="translate(-8.61 -4.27)"/><path class="cls-4" d="M562.19,289.59c0-5.3,3.64-8.84,8.46-8.84,4,0,6.9,2.25,7.65,5.75h-2.92c-.48-2.08-2.42-3.3-4.76-3.3-2.86,0-5.51,2.18-5.51,6.39s2.65,6.43,5.51,6.43c2.34,0,4.28-1.23,4.76-3.34h2.92c-.71,3.41-3.64,5.75-7.65,5.75C565.83,298.43,562.19,294.89,562.19,289.59Z" transform="translate(-8.61 -4.27)"/><path class="cls-4" d="M583.51,292.86v-9.29h-2.93v-2.41h2.93l.37-4.05h2.48v4.05h5v2.41h-5v9.29c0,2.14.75,2.71,2.93,2.71h1.76V298h-2.58C585.38,298,583.51,296.73,583.51,292.86Z" transform="translate(-8.61 -4.27)"/><path class="cls-12" d="M334.08,223l-6.66,23.79h-3.26l-5.68-19.68-5.81,19.68-3.2,0L302.94,223H306l5.14,20.4L317,223h3.16l5.68,20.46L331,223Z" transform="translate(-8.61 -4.27)"/><path class="cls-12" d="M345.85,229.5v3h-.78c-3,0-5.51,1.32-5.51,5.78v8.49H336.7V229.91h2.59l.24,3.27C340.58,230.9,342.72,229.5,345.85,229.5Z" transform="translate(-8.61 -4.27)"/><path class="cls-12" d="M348.81,224.2a2,2,0,0,1,3.94,0,2,2,0,0,1-3.94,0Zm.54,5.71h2.86v16.86h-2.86Z" transform="translate(-8.61 -4.27)"/><path class="cls-12" d="M358.87,241.61v-9.28H356v-2.42h2.92l.38-4h2.48v4h5v2.42h-5v9.28c0,2.14.75,2.72,2.92,2.72h1.77v2.44h-2.59C360.74,246.77,358.87,245.48,358.87,241.61Z" transform="translate(-8.61 -4.27)"/><path class="cls-12" d="M385.39,239H371.93c.2,3.88,2.79,5.78,5.51,5.78a4.69,4.69,0,0,0,4.69-3H385a7.4,7.4,0,0,1-7.51,5.44c-4.83,0-8.3-3.5-8.3-8.84s3.4-8.84,8.36-8.84a7.67,7.67,0,0,1,7.92,7.89C385.42,237.87,385.42,238.34,385.39,239Zm-2.79-2.21a4.86,4.86,0,0,0-5.16-4.86,5.22,5.22,0,0,0-5.48,4.86Z" transform="translate(-8.61 -4.27)"/><path class="cls-8" d="M454.15,88l-4.82-4.82,4.49-4.49,4.83,4.82a3.18,3.18,0,0,0,4.49-4.49l-4.82-4.83L460.57,72a3.18,3.18,0,0,0-4.5-4.5h0l-22.8,22.8a11.14,11.14,0,1,0,4.49,4.5l7.08-7.07,4.82,4.83a3.18,3.18,0,0,0,4.49-4.5h0Z" transform="translate(-8.61 -4.27)"/><path class="cls-8" d="M428,96.07a4,4,0,1,1-4,4A4,4,0,0,1,428,96.07Z" transform="translate(-8.61 -4.27)"/><path class="cls-4" d="M403.25,487.46l-3.85.85v-2l4.8-2.07h1.93v23.8h-2.88Z" transform="translate(-8.61 -4.27)"/><line class="cls-5" x1="870.93" y1="302.27" x2="790.59" y2="382.6"/><path class="cls-6" d="M871.16,299a11.28,11.28,0,1,1,0,16A11.28,11.28,0,0,1,871.16,299Z" transform="translate(-8.61 -4.27)"/><circle class="cls-7" cx="792.09" cy="380.9" r="66.36"/><path class="cls-6" d="M813.55,395.08H787.86l-5.6,15.51h-7.58l22.23-60.33h7.67l22.15,60.33h-7.67Zm-2.16-5.86L800.7,359.31l-10.77,29.91Z" transform="translate(-8.61 -4.27)"/><path class="cls-9" d="M894.38,608.66a8.58,8.58,0,0,1,0,11.57c-13,14.28-50.06,50-93.68,50s-80.62-35.7-93.67-50a8.58,8.58,0,0,1,0-11.57c13-14.27,50-50,93.67-50S881.37,594.4,894.38,608.66Z" transform="translate(-8.61 -4.27)"/><path class="cls-9" d="M800.7,558.67a55.78,55.78,0,1,1-55.78,55.78A55.78,55.78,0,0,1,800.7,558.67Z" transform="translate(-8.61 -4.27)"/><rect class="cls-13" x="725.73" y="2" width="132.73" height="191.34" rx="25.43"/><rect class="cls-11" x="725.73" y="41.65" width="132.73" height="79.8"/><path class="cls-4" d="M915.51,291.9H905.38L903.17,298h-3L909,274.23h3L920.71,298h-3Zm-.85-2.31-4.21-11.79-4.25,11.79Z" transform="translate(-8.61 -4.27)"/><path class="cls-4" d="M922.45,289.59c0-5.3,3.64-8.84,8.47-8.84,4,0,6.9,2.25,7.64,5.75h-2.92c-.47-2.08-2.41-3.3-4.76-3.3-2.85,0-5.51,2.18-5.51,6.39S928,296,930.88,296c2.35,0,4.29-1.23,4.76-3.34h2.92c-.71,3.41-3.63,5.75-7.64,5.75C926.09,298.43,922.45,294.89,922.45,289.59Z" transform="translate(-8.61 -4.27)"/><path class="cls-4" d="M943.77,292.86v-9.29h-2.93v-2.41h2.93l.37-4.05h2.48v4.05h5v2.41h-5v9.29c0,2.14.75,2.71,2.93,2.71h1.76V298h-2.58C945.64,298,943.77,296.73,943.77,292.86Z" transform="translate(-8.61 -4.27)"/><path class="cls-8" d="M814.42,88l-4.83-4.82,4.5-4.49,4.82,4.82a3.18,3.18,0,0,0,4.5-4.49l-4.83-4.83L820.83,72a3.18,3.18,0,1,0-4.49-4.5h0l-22.81,22.8a11.12,11.12,0,1,0,4.5,4.5l7.07-7.07,4.82,4.83a3.18,3.18,0,0,0,4.5-4.5h0Z" transform="translate(-8.61 -4.27)"/><path class="cls-8" d="M788.26,96.07a4,4,0,1,1-4,4A4,4,0,0,1,788.26,96.07Z" transform="translate(-8.61 -4.27)"/><path class="cls-4" d="M751.61,506.05c6.42-5.1,12-10.44,12-15,0-2.48-1.12-4.76-4.38-4.76s-4.73,2.34-4.73,5h-2.75c0-4.69,3.19-7.48,7.51-7.48s7.21,2.38,7.21,7.11c0,5.57-6.39,11.22-10.68,14.72h11.49v2.38h-15.7Z" transform="translate(-8.61 -4.27)"/><line class="cls-5" x1="1315.96" y1="302.27" x2="1235.62" y2="382.6"/><path class="cls-6" d="M1316.19,299a11.28,11.28,0,1,1,0,16A11.28,11.28,0,0,1,1316.19,299Z" transform="translate(-8.61 -4.27)"/><circle class="cls-7" cx="1237.13" cy="380.9" r="66.36"/><path class="cls-6" d="M1258.58,395.08h-25.69l-5.6,15.51h-7.58l22.23-60.33h7.67l22.15,60.33h-7.67Zm-2.16-5.86-10.69-29.91L1235,389.22Z" transform="translate(-8.61 -4.27)"/><path class="cls-9" d="M1339.41,608.66a8.58,8.58,0,0,1,0,11.57c-13,14.28-50.05,50-93.68,50s-80.62-35.7-93.67-50a8.6,8.6,0,0,1,0-11.57c13-14.27,50-50,93.67-50S1326.4,594.4,1339.41,608.66Z" transform="translate(-8.61 -4.27)"/><path class="cls-9" d="M1245.73,558.67A55.78,55.78,0,1,1,1190,614.45,55.78,55.78,0,0,1,1245.73,558.67Z" transform="translate(-8.61 -4.27)"/><line class="cls-9" x1="1237.13" y1="554.4" x2="1237.13" y2="482.34"/><rect class="cls-14" x="1170.76" y="2" width="132.73" height="191.34" rx="25.43"/><rect class="cls-11" x="1170.76" y="41.65" width="132.73" height="79.8"/><path class="cls-4" d="M1360.54,291.9h-10.13L1348.2,298h-3l8.77-23.79h3l8.74,23.79h-3Zm-.85-2.31-4.21-11.79-4.25,11.79Z" transform="translate(-8.61 -4.27)"/><path class="cls-4" d="M1367.48,289.59c0-5.3,3.64-8.84,8.47-8.84,4,0,6.9,2.25,7.65,5.75h-2.93c-.47-2.08-2.41-3.3-4.76-3.3-2.85,0-5.5,2.18-5.5,6.39s2.65,6.43,5.5,6.43c2.35,0,4.29-1.23,4.76-3.34h2.93c-.72,3.41-3.64,5.75-7.65,5.75C1371.12,298.43,1367.48,294.89,1367.48,289.59Z" transform="translate(-8.61 -4.27)"/><path class="cls-4" d="M1388.8,292.86v-9.29h-2.92v-2.41h2.92l.37-4.05h2.48v4.05h5v2.41h-5v9.29c0,2.14.75,2.71,2.93,2.71h1.77V298h-2.59C1390.67,298,1388.8,296.73,1388.8,292.86Z" transform="translate(-8.61 -4.27)"/><path class="cls-8" d="M1259.45,88l-4.83-4.82,4.5-4.49,4.82,4.82a3.18,3.18,0,0,0,4.5-4.49l-4.83-4.83,2.25-2.24a3.18,3.18,0,1,0-4.49-4.5h0l-22.81,22.8a11.12,11.12,0,1,0,4.5,4.5l7.08-7.07,4.81,4.83a3.18,3.18,0,0,0,4.5-4.5h0Z" transform="translate(-8.61 -4.27)"/><path class="cls-8" d="M1233.29,96.07a4,4,0,1,1-4,4A4,4,0,0,1,1233.29,96.07Z" transform="translate(-8.61 -4.27)"/><path class="cls-4" d="M1177,486.6h-7.11v-2.34H1187v2.34h-7.11v21.46H1177Z" transform="translate(-8.61 -4.27)"/><path class="cls-4" d="M1188.24,497h13.47v2.42h-13.47Z" transform="translate(-8.61 -4.27)"/><path class="cls-4" d="M1208.54,487.46l-3.84.85v-2l4.79-2.07h1.94v23.8h-2.89Z" transform="translate(-8.61 -4.27)"/><line class="cls-5" x1="1676.22" y1="302.27" x2="1595.89" y2="382.6"/><path class="cls-6" d="M1676.46,299a11.28,11.28,0,1,1,0,16A11.27,11.27,0,0,1,1676.46,299Z" transform="translate(-8.61 -4.27)"/><circle class="cls-7" cx="1597.39" cy="380.9" r="66.36"/><path class="cls-6" d="M1618.84,395.08h-25.68l-5.6,15.51H1580l22.24-60.33h7.67L1632,410.59h-7.67Zm-2.15-5.86L1606,359.31l-10.77,29.91Z" transform="translate(-8.61 -4.27)"/><line class="cls-9" x1="1597.39" y1="554.4" x2="1597.39" y2="482.34"/><rect class="cls-14" x="1531.02" y="2" width="132.73" height="191.34" rx="25.43"/><rect class="cls-11" x="1531.02" y="41.65" width="132.73" height="79.8"/><path class="cls-4" d="M1720.81,291.9h-10.13l-2.21,6.12h-3l8.77-23.79h3L1726,298h-3Zm-.85-2.31-4.22-11.79-4.25,11.79Z" transform="translate(-8.61 -4.27)"/><path class="cls-4" d="M1727.75,289.59c0-5.3,3.63-8.84,8.46-8.84,4,0,6.9,2.25,7.65,5.75h-2.92c-.48-2.08-2.42-3.3-4.76-3.3-2.86,0-5.51,2.18-5.51,6.39s2.65,6.43,5.51,6.43c2.34,0,4.28-1.23,4.76-3.34h2.92c-.71,3.41-3.64,5.75-7.65,5.75C1731.38,298.43,1727.75,294.89,1727.75,289.59Z" transform="translate(-8.61 -4.27)"/><path class="cls-4" d="M1749.06,292.86v-9.29h-2.92v-2.41h2.92l.38-4.05h2.48v4.05h5v2.41h-5v9.29c0,2.14.75,2.71,2.92,2.71h1.77V298H1754C1750.93,298,1749.06,296.73,1749.06,292.86Z" transform="translate(-8.61 -4.27)"/><path class="cls-4" d="M1768.78,286.7a22.29,22.29,0,0,1,6.84-16.25h2.92v.27a22,22,0,0,0,0,32V303h-2.92A22.27,22.27,0,0,1,1768.78,286.7Z" transform="translate(-8.61 -4.27)"/><path class="cls-4" d="M1783.1,283.57h-2.55v-2.41h2.55v-2.92c0-3.27,1.66-4.69,4.79-4.69h1.7V276h-1.26c-1.7,0-2.38.61-2.38,2.32v2.85h10.47V298h-2.85V283.57H1786V298h-2.85Zm10-7.61a2,2,0,0,1,3.94,0,2,2,0,1,1-3.94,0Z" transform="translate(-8.61 -4.27)"/><path class="cls-4" d="M1816.59,288.16V298h-2.86v-9.55c0-3.5-1.53-5.27-4.35-5.27s-5.07,2.18-5.07,6.09V298h-2.85V281.16H1804l.17,3a6.31,6.31,0,0,1,5.81-3.44C1814,280.75,1816.59,283.13,1816.59,288.16Z" transform="translate(-8.61 -4.27)"/><path class="cls-4" d="M1820.19,289.56c0-5.1,3.33-8.81,8.4-8.81a6.78,6.78,0,0,1,6.15,3.23V273.55h2.86V298H1835l-.27-2.79a7.17,7.17,0,0,1-6.19,3.2C1823.52,298.43,1820.19,294.66,1820.19,289.56Zm14.45,0c0-3.81-2.38-6.36-5.78-6.36s-5.75,2.55-5.75,6.36,2.38,6.36,5.75,6.36S1834.64,293.4,1834.64,289.59Z" transform="translate(-8.61 -4.27)"/><path class="cls-4" d="M1861.84,298l-7.72-8.73V298h-2.85V273.55h2.85v14.72l6.9-7.11h3.5l-7.48,7.62,8.44,9.24Z" transform="translate(-8.61 -4.27)"/><path class="cls-4" d="M1882.71,290.24h-13.46c.21,3.87,2.79,5.78,5.51,5.78a4.69,4.69,0,0,0,4.69-3h2.82a7.39,7.39,0,0,1-7.51,5.44c-4.83,0-8.3-3.5-8.3-8.84s3.4-8.84,8.37-8.84a7.67,7.67,0,0,1,7.92,7.89C1882.75,289.12,1882.75,289.59,1882.71,290.24Zm-2.78-2.21a4.87,4.87,0,0,0-5.17-4.86,5.21,5.21,0,0,0-5.47,4.86Z" transform="translate(-8.61 -4.27)"/><path class="cls-4" d="M1891.86,296.39h-1l-6.7-15.23h3.09l5.58,13.12,5.91-13.12h3l-11,24.34h-3Z" transform="translate(-8.61 -4.27)"/><path class="cls-4" d="M1903.69,303v-.27a21.91,21.91,0,0,0,0-32v-.27h2.89a22.75,22.75,0,0,1,0,32.5Z" transform="translate(-8.61 -4.27)"/><path class="cls-8" d="M1619.71,88l-4.83-4.82,4.5-4.49,4.83,4.82a3.18,3.18,0,0,0,4.49-4.49l-4.82-4.83,2.24-2.24a3.18,3.18,0,1,0-4.49-4.5h0l-22.81,22.8a11.12,11.12,0,1,0,4.5,4.5l7.08-7.07,4.82,4.83a3.18,3.18,0,1,0,4.49-4.5h0Z" transform="translate(-8.61 -4.27)"/><path class="cls-8" d="M1593.56,96.07a4,4,0,1,1-4,4A4,4,0,0,1,1593.56,96.07Z" transform="translate(-8.61 -4.27)"/><path class="cls-4" d="M1568.8,487.46l-3.84.85v-2l4.79-2.07h1.94v23.8h-2.89Z" transform="translate(-8.61 -4.27)"/><path class="cls-4" d="M1805,451.41h-7.11v-2.35H1815v2.35h-7.11v21.45H1805Z" transform="translate(-8.61 -4.27)"/><path class="cls-4" d="M1818.07,450.29a1.88,1.88,0,0,1,2-1.91,1.91,1.91,0,0,1,2,1.91,2,2,0,0,1-2,2A1.93,1.93,0,0,1,1818.07,450.29Zm.55,5.71h2.85v16.86h-2.85Z" transform="translate(-8.61 -4.27)"/><path class="cls-4" d="M1852.55,463v9.86h-2.83v-9.55c0-3.5-1.46-5.27-4.08-5.27s-4.72,2.17-4.72,6.08v8.74h-2.86v-9.55c0-3.5-1.46-5.27-4.08-5.27s-4.69,2.17-4.69,6.08v8.74h-2.85V456H1829l.2,2.45a5.9,5.9,0,0,1,5.24-2.86,5.84,5.84,0,0,1,5.68,3.3,6.56,6.56,0,0,1,5.78-3.3C1849.93,455.59,1852.55,458,1852.55,463Z" transform="translate(-8.61 -4.27)"/><path class="cls-4" d="M1872.4,465.08h-13.46c.2,3.87,2.79,5.77,5.51,5.77a4.69,4.69,0,0,0,4.69-3H1872a7.39,7.39,0,0,1-7.51,5.44c-4.83,0-8.3-3.5-8.3-8.84s3.4-8.84,8.37-8.84a7.67,7.67,0,0,1,7.92,7.89C1872.44,464,1872.44,464.43,1872.4,465.08Zm-2.78-2.21a4.88,4.88,0,0,0-5.17-4.87,5.23,5.23,0,0,0-5.48,4.87Z" transform="translate(-8.61 -4.27)"/><path class="cls-8" d="M1630.37,604.92a8.48,8.48,0,0,0-8.48-8.48H1590.1a8.48,8.48,0,0,0-8.47,8.48v4.24h48.74Z" transform="translate(-8.61 -4.27)"/><path class="cls-8" d="M1600.7,596.44c-6.36,0-6.36,8.48-6.36,8.48v4.24" transform="translate(-8.61 -4.27)"/><path class="cls-8" d="M1611.29,596.44c6.36,0,6.36,8.48,6.36,8.48v4.24" transform="translate(-8.61 -4.27)"/><path class="cls-8" d="M1630.37,609.16h-48.74v19.07a4.23,4.23,0,0,0,4.23,4.24h40.27a4.24,4.24,0,0,0,4.24-4.24Z" transform="translate(-8.61 -4.27)"/><path class="cls-8" d="M1581.63,613.4h19.07a1.06,1.06,0,0,1,1.06,1.06v1.06a4.23,4.23,0,0,0,4.24,4.23h0a4.23,4.23,0,0,0,4.24-4.23v-1.06a1.05,1.05,0,0,1,1-1.06h19.08" transform="translate(-8.61 -4.27)"/><path class="cls-8" d="M1606,613.4v2.12" transform="translate(-8.61 -4.27)"/><path class="cls-8" d="M1594.35,613.4v19.07" transform="translate(-8.61 -4.27)"/><path class="cls-8" d="M1617.66,613.4v19.07" transform="translate(-8.61 -4.27)"/><path class="cls-9" d="M1699.68,608.67a8.6,8.6,0,0,1,0,11.57c-13,14.28-50.06,50-93.68,50s-80.63-35.7-93.67-50a8.58,8.58,0,0,1,0-11.57c13-14.27,50-50,93.67-50S1686.67,594.41,1699.68,608.67Z" transform="translate(-8.61 -4.27)"/><path class="cls-9" d="M1606,558.67a55.79,55.79,0,1,1-55.79,55.79A55.78,55.78,0,0,1,1606,558.67Z" transform="translate(-8.61 -4.27)"/><path class="cls-15" d="M1693.57,127.1v-6.31h3.33c4.82,0,7.45-2.11,7.45-7.46,0-5.17-1.84-9-1.84-15.86,0-6.23,2.89-11,9.73-12.54v-.17c-6.84-1.49-9.73-6.32-9.73-12.45,0-6.93,1.84-10.7,1.84-15.87,0-5.34-2.63-7.45-7.45-7.45h-3.33V42.68h4.64c8,0,13.24,4.3,13.24,13.15,0,6-1.84,9.47-1.84,16.22,0,4.29,1.93,8.32,9,9.81v6c-7.1,1.58-9,5.61-9,9.82,0,6.75,1.84,10.35,1.84,16.31,0,8.76-5.26,13.15-13.24,13.15Z" transform="translate(-8.61 -4.27)"/><path class="cls-12" d="M1664.69,246.77l-4.83-9.82H1655v9.82h-2.85V223h7.68c5.54,0,8,3.06,8,7a6.51,6.51,0,0,1-5,6.59l5.2,10.23ZM1655,234.71h4.63c3.63,0,5.27-2,5.27-4.73s-1.53-4.59-5.31-4.59H1655Z" transform="translate(-8.61 -4.27)"/><path class="cls-12" d="M1686.62,239h-13.47c.21,3.88,2.79,5.78,5.51,5.78a4.68,4.68,0,0,0,4.69-3h2.82a7.39,7.39,0,0,1-7.51,5.44c-4.83,0-8.29-3.5-8.29-8.84s3.39-8.84,8.36-8.84a7.67,7.67,0,0,1,7.92,7.89C1686.65,237.87,1686.65,238.34,1686.62,239Zm-2.79-2.21a4.87,4.87,0,0,0-5.17-4.86,5.21,5.21,0,0,0-5.47,4.86Z" transform="translate(-8.61 -4.27)"/><path class="cls-12" d="M1704.53,236.41v10.36H1702l-.17-3a6,6,0,0,1-5.78,3.43c-4.24,0-6.25-2.41-6.25-5.2,0-3.43,2.82-5.37,7.34-5.37h4.56v-.2c0-3-1.7-4.49-4.25-4.49-2.21,0-4,1.12-4.39,3.26h-2.92c.37-3.64,3.74-5.68,7.31-5.68C1702.12,229.5,1704.53,232.26,1704.53,236.41Zm-2.85,2.44v0h-4.32c-3.37,0-4.59,1.29-4.59,3s1.33,2.92,3.71,2.92C1699.77,244.77,1701.68,241.85,1701.68,238.85Z" transform="translate(-8.61 -4.27)"/><path class="cls-12" d="M1708.1,238.31c0-5.1,3.34-8.81,8.4-8.81a6.8,6.8,0,0,1,6.16,3.23V222.3h2.85v24.47h-2.58l-.27-2.78a7.2,7.2,0,0,1-6.19,3.19C1711.44,247.18,1708.1,243.41,1708.1,238.31Zm14.45,0c0-3.8-2.38-6.35-5.78-6.35s-5.74,2.55-5.74,6.35,2.38,6.36,5.74,6.36S1722.55,242.15,1722.55,238.34Z" transform="translate(-8.61 -4.27)"/><path class="cls-9" d="M420.72,505.54l19.72-19.82,19.72,19.82" transform="translate(-8.61 -4.27)"/><line class="cls-9" x1="792.09" y1="554.4" x2="792.09" y2="483.34"/><path class="cls-9" d="M781,505.54l19.71-19.82,19.71,19.82" transform="translate(-8.61 -4.27)"/><line class="cls-9" x1="767.4" y1="303.5" x2="767.4" y2="210.63"/><path class="cls-9" d="M756.3,232.83,776,213l19.71,19.81" transform="translate(-8.61 -4.27)"/><line class="cls-9" x1="816.79" y1="207.79" x2="816.79" y2="300.2"/><path class="cls-9" d="M845.11,286.53l-19.7,19.81L805.7,286.53" transform="translate(-8.61 -4.27)"/><line class="cls-9" x1="1212.43" y1="303.5" x2="1212.43" y2="210.63"/><path class="cls-9" d="M1201.33,232.83,1221,213l19.71,19.81" transform="translate(-8.61 -4.27)"/><line class="cls-9" x1="1261.82" y1="207.79" x2="1261.82" y2="300.2"/><path class="cls-9" d="M1290.15,286.53l-19.71,19.81-19.71-19.81" transform="translate(-8.61 -4.27)"/><line class="cls-16" x1="1572.69" y1="303.5" x2="1572.69" y2="210.63"/><path class="cls-9" d="M1561.59,232.83,1581.3,213,1601,232.83" transform="translate(-8.61 -4.27)"/><line class="cls-17" x1="1622.09" y1="207.79" x2="1622.09" y2="300.2"/><path class="cls-17" d="M1650.41,286.53l-19.71,19.81L1611,286.53" transform="translate(-8.61 -4.27)"/><line class="cls-16" x1="456.53" y1="207.33" x2="456.53" y2="300.2"/><path class="cls-9" d="M484.85,286.53l-19.71,19.81-19.71-19.81" transform="translate(-8.61 -4.27)"/><line class="cls-17" x1="407.13" y1="303.04" x2="407.13" y2="210.63"/><path class="cls-17" d="M396,232.83,415.74,213l19.71,19.81" transform="translate(-8.61 -4.27)"/><path class="cls-9" d="M1226,505.54l19.72-19.82,19.72,19.82" transform="translate(-8.61 -4.27)"/><path class="cls-9" d="M1586.28,506.45,1606,486.63l19.72,19.82" transform="translate(-8.61 -4.27)"/></svg>